# xmcd
#
# Track frame offsets: 
#        150
#        12155
#        26775
#        44792
#        59810
#        70837
#        85450
#        97172
#        110072
#        127850
#        143910
#        158284
#        175792
#        183109
#
# Disc length: 2712 seconds
#
# Revision: 5
# Processed by: cddbd v1.5.2PL0 Copyright (c) Steve Scherf et al.
# Submitted via: ExactAudioCopyFreeDBPlugin 1.0
#
DISCID=c20a960e
DTITLE=Various Artist - A Country Superstar Christmas
DYEAR=1997
DGENRE=Country
TTITLE0=George Strait - Merry Christmas Strait to You
TTITLE1=Tracy Byrd - Chirstmas Like Mama Used to Make It
TTITLE2=Trisha Yearwood - The Christmas Song
TTITLE3=The Mavericks - Santa Claus is Back In Town
TTITLE4=Reba McEntire - Away in a Manger
TTITLE5=Lorrie Morgan - O Holy Night
TTITLE6=Vince Gill - Santa Claus is Coming to Town
TTITLE7=Alan Jackson - The Angels Cried
TTITLE8=The Tractors - Santa Claus is Coming to Town (In a Boogie Woog
TTITLE8=ie Choo Choo Trian)
TTITLE9=Wynonna - Let's Make a Baby King
TTITLE10=Alabama - O Little Town of Bethlehem
TTITLE11=Gary Allan - Please Come Home for Christmas
TTITLE12=Amy Grant - Santa's Reindeer Ride
TTITLE13=Vince Gill - Let There Be Peace on Earth
EXTD=
EXTT0=
EXTT1=
EXTT2=
EXTT3=
EXTT4=
EXTT5=
EXTT6=
EXTT7=
EXTT8=
EXTT9=
EXTT10=
EXTT11=
EXTT12=
EXTT13=
PLAYORDER=
